<?xml version="1.0" encoding="UTF-8" standalone="no"?>
<!DOCTYPE svg PUBLIC "-//W3C//DTD SVG 1.1//EN" "http://www.w3.org/Graphics/SVG/1.1/DTD/svg11.dtd">
<svg width="100%" height="100%" viewBox="0 0 1707 538" version="1.1" xmlns="http://www.w3.org/2000/svg" xmlns:xlink="http://www.w3.org/1999/xlink" xml:space="preserve" xmlns:serif="http://www.serif.com/" style="fill-rule:evenodd;clip-rule:evenodd;stroke-linejoin:round;stroke-miterlimit:2;">
    <g transform="matrix(1,0,0,1,0,-639)">
        <g id="Logo-Nombre" serif:id="Logo+Nombre" transform="matrix(4.20443,0,0,0.994455,8.40887,640.989)">
            <rect x="-2" y="-2" width="406" height="541" style="fill:none;"/>
            <g transform="matrix(0.248064,0,0,1.04878,-45.0424,-14.6718)">
                <g transform="matrix(0.639047,0,0,0.639047,129.943,27.2792)">
                    <g transform="matrix(1.64374,0,0,1.64374,-217.453,-126.854)">
                        <path d="M271,256L290,256L301,244L309,254L321,215L338,281L354,184L370,281L388,216L399,253L407,244L418,256L438,256L415,260L407,251L397,265L388,236L369,306L354,218L339,306L320,235L312,265L301,251L294,260L271,256Z" style="fill:rgb(161,35,35);"/>
                    </g>
                    <path d="M436.906,257.672L439.067,257.17L440.557,257.228L443.003,258.259L444.12,258.373L444.28,257.915L444.28,256.941L444.386,255.91L444.865,255.28L445.876,255.223L447.099,255.452L447.684,255.681L448.322,255.853L448.801,256.082L449.28,256.254L450.344,254.192L451.993,253.562L452.95,253.505L453.854,253.448L455.556,252.818L456.726,251.615L457.312,250.584L457.897,249.496L458.854,248.35L460.716,247.548L462.046,247.777L463.056,247.548L463.801,245.257L463.482,244.856L462.152,243.539L461.833,242.909L461.673,239.644L461.726,239.129L463.269,238.499L465.556,238.728L466.035,238.843L469.599,239.702L472.045,239.759L480.024,238.785L484.066,239.014L485.822,240.561L488.109,246.632L489.226,248.064L490.29,249.438L491.726,250.813L493.109,252.13L494.385,253.734L495.609,255.28L496.885,259.347L503.906,255.681L506.193,255.051L506.619,255.166L507.364,255.338L509.651,256.827L510.661,257.17L511.406,256.827L513.374,255.223L514.544,254.765L516.087,254.88L519.065,255.567L520.555,255.452L522.044,254.307L523.321,252.646L524.863,251.328L527.15,251.214L528.587,252.417L530.076,256.712L531.299,258.717L532.097,259.175L534.278,260.092L535.182,260.607L537.682,262.841L541.937,266.678L544.65,267.824L543.267,270.229L540.182,277.732L539.384,280.424L540.395,283.116L539.65,284.891L538.108,286.438L536.778,288.442L536.246,291.363L536.352,297.492L535.98,300.527L532.31,309.806L531.406,314.388L533.001,318.168L534.597,318.741L536.246,318.168L537.842,317.595L540.076,318.512L541.246,319.943L542.044,321.948L542.31,324.124L541.937,326.244L539.331,329.394L527.257,335.178L526.087,334.434L525.289,333.117L524.119,329.566L519.81,337.412L518.693,342.051L521.512,344.113L523.321,344.801L528.427,349.955L531.299,352.017L531.565,352.934L531.565,354.938L530.289,358.489L527.257,361.009L515.874,367.023L512.789,369.6L512.257,372.235L515.768,374.812L510.342,376.13L489.279,374.583L485.343,373.782L484.332,373.552L483.268,373.552L482.151,374.068L480.715,374.641L467.471,375.843L453.269,373.552L449.599,374.812L447.631,374.125L445.397,373.552L445.397,372.579L448.908,372.292L449.12,369.772L447.259,366.622L444.493,364.56L445.078,365.878L446.886,368.512L447.631,370.23L442.099,370.001L439.386,370.288L437.046,371.319L438.535,372.006L439.759,371.834L441.142,371.376L443.323,371.319L443.323,372.579L439.759,374.125L435.823,374.011L432.791,372.006L431.833,367.94L433.323,368.684L433.908,369.085L436.035,366.794L436.035,365.82L433.376,364.56L430.504,360.322L428.589,359.062L429.121,361.41L429.972,363.358L430.451,365.133L429.759,366.794L427.525,365.477L421.036,363.758L418.217,362.212L415.717,357.458L414.547,356.714L412.738,356.542L407.685,355.454L405.451,355.454L402.296,356.092L420.799,287.924L427.948,310.96C428.792,313.681 431.106,315.688 433.918,316.141C436.731,316.594 439.558,315.414 441.214,313.096L452.188,297.733L459.093,305.501C460.818,307.442 463.425,308.352 465.983,307.907L503.789,301.332C507.624,300.665 510.311,297.176 509.976,293.298C509.642,289.42 506.396,286.443 502.504,286.443L472.929,286.443L457.077,269.15C455.643,267.586 453.613,266.702 451.491,266.718C449.369,266.735 447.353,267.649 445.943,269.235L441.747,273.956L436.906,257.672ZM401.334,359.637L409.547,358.718L410.93,358.947L412.898,360.093L414.015,361.124L415.876,363.587L417.206,364.56L417.206,365.82L414.334,365.305L412.206,364.904L407.685,363.472L407.685,364.56L420.238,367.309L426.78,369.543L429.759,372.579L428.642,374.526L425.929,374.068L422.844,372.35L420.823,370.746L418.589,369.543L399.65,365.843L401.334,359.637ZM379.038,361.816L379.016,361.811L374.282,359.52L374.228,359.463L371.994,358.375L352.071,348.623L364.43,276.116L379.038,361.816ZM319.738,330.269L318.113,329.222L307.687,324.411L296.464,321.604L291.198,321.604L287.262,320.573L262.263,319.313L253.274,316.621L251.306,316.049L227.157,313.7L222.104,314.502L220.402,313.529L219.232,306.484L218.009,303.849L216.307,301.787L214.604,300.184L209.977,296.976L200.509,291.993L200.19,291.822L191.573,285.751L177.797,278.706L175.403,270.916L175.35,268.339L175.722,265.647L176.52,263.07L177.744,260.664L179.605,258.66L183.807,256.311L185.669,254.765L187.105,252.417L188.116,250.068L189.392,247.72L191.679,245.601L206.413,234.833L209.658,231.397L211.307,230.309L218.062,227.56L220.349,227.445L223.115,228.19L227.104,231.397L229.338,232.371L231.572,231.111L231.625,230.194L231.519,229.908L230.508,227.56L230.402,226.242L230.827,224.925L237.37,212.783L240.455,209.289L244.285,206.196L248.327,204.249L264.763,200.125L265.773,199.094L265.72,196.517L265.242,195.829L263.274,194.856L262.635,194.168L262.369,193.08L262.05,190.56L261.891,189.758L260.986,188.04L260.508,187.353L259.657,186.494L258.593,186.035L255.401,185.577L254.444,183.229L255.348,181.854L256.891,180.709L257.848,179.105L257.848,179.048L257.423,177.158L256.306,175.554L255.614,173.664L256.625,171.03L258.806,169.369L261.04,169.598L262.742,171.373L263.167,174.409L265.242,172.805L269.018,168.051L271.784,166.849L274.178,167.192L275.933,168.109L277.635,168.796L280.082,168.28L283.539,164.5L285.082,163.87L285.294,167.078L286.092,165.818L286.252,165.417L290.72,168.796L293.166,169.197L298.964,170.17L303.751,172.519L311.57,174.294L315.453,177.215L322.527,179.392L323.219,178.704L323.964,178.017L326.144,173.55L327.368,172.232L328.751,171.831L329.655,172.003L330.4,172.748L331.251,174.008L332.049,175.497L332.368,177.158L332.208,178.819L331.623,180.423L333.378,182.026L338.591,182.656L341.038,183.974L341.995,185.978L342.633,191.018L343.325,192.508L347.208,195.6L348.591,197.376L349.974,199.839L350.293,200.87L350.559,201.901L350.612,202.473L350.825,204.02L351.303,205.738L351.794,206.118L336.52,298.716L317.45,224.679C316.612,221.428 313.717,219.13 310.361,219.052C307.005,218.974 304.006,221.136 303.019,224.344L287.463,274.9L283.169,269.533C281.8,267.823 279.753,266.796 277.564,266.722C275.375,266.649 273.263,267.536 271.783,269.15L255.932,286.443L228,286.443C224.108,286.443 220.862,289.42 220.528,293.298C220.193,297.176 222.88,300.665 226.715,301.332L264.521,307.907C267.253,308.382 270.024,307.311 271.726,305.122L277.342,297.902L289.496,313.37C291.252,315.605 294.119,316.655 296.903,316.083C299.687,315.511 301.908,313.415 302.64,310.669L308.556,288.485L319.738,330.269ZM379.489,220.805L380.186,220.858L382.047,220.114L383.59,219.083L384.281,219.026L384.92,218.968L386.037,220.858L385.93,223.665L384.973,226.357L384.866,228.648L387.313,230.309L390.558,230.767L391.302,231.053L391.834,231.569L392.366,232.027L393.164,233.172L393.483,234.547L393.43,235.463L393.43,235.693L394.388,235.292L394.6,235.234L395.611,235.12L398.27,234.662L402.153,234.948L409.94,237.563L392.589,300.222L379.489,220.805ZM364.812,223.991L364.43,221.677L364.048,223.991C364.175,223.984 364.302,223.981 364.43,223.981C364.558,223.981 364.685,223.984 364.812,223.991Z" style="fill:rgb(84,19,19);fill-rule:nonzero;"/>
                </g>
                <g transform="matrix(2.25551,0,0,2.25551,-451.982,-338.987)">
                    <path d="M277.967,239.77C277.96,239.35 277.957,238.925 277.957,238.5C277.957,193.243 314.699,156.5 359.957,156.5C405.214,156.5 441.957,193.243 441.957,238.5C441.957,238.5 442.394,241.936 441.308,248.849C440.293,256.9 438.109,264.589 434.928,271.743C425.82,295.774 405.224,332.935 358.957,383.5C313.026,332.01 293.047,294.419 284.413,270.425C281.196,262.83 279.09,254.648 278.304,246.086C277.964,243.095 277.934,240.991 277.967,239.77ZM360,183C392.563,183 419,209.437 419,242C419,274.563 392.563,301 360,301C327.437,301 301,274.563 301,242C301,209.437 327.437,183 360,183Z" style="fill:rgb(212,47,47);"/>
                </g>
            </g>
            <g transform="matrix(0.237844,0,0,1.00558,2.62095,-657.415)">
                <text x="473px" y="1080px" style="font-family:'Lobster-Regular', 'Lobster';font-size:428.586px;fill:rgb(84,19,19);">Tremor</text>
            </g>
        </g>
    </g>
</svg>
